<svg width="45" height="43" viewBox="0 0 45 43" fill="none" xmlns="http://www.w3.org/2000/svg">
<g clip-path="url(#clip0_2_3)">
<path d="M37.2723 30.1145C37.1708 30.085 37.0618 30.097 36.9691 30.1478C36.8765 30.1986 36.8077 30.2841 36.778 30.3856C36.7486 30.4871 36.7606 30.5961 36.8114 30.6888C36.8622 30.7815 36.9477 30.8502 37.0492 30.8799C40.4732 31.8751 42.41 32.9269 43.3664 33.8679C44.3227 34.8089 44.3575 35.5657 44.0628 36.3078C43.7681 37.0499 43.0475 37.7564 42.3883 38.2546C41.7386 38.7457 41.1903 39.0235 41.1741 39.0317C38.6632 40.037 33.4342 41.1251 27.6493 41.6738C21.8571 42.2232 15.4844 42.2415 10.6515 41.1854C5.41087 40.0401 2.64597 38.7715 1.50758 37.654C0.938384 37.0952 0.769536 36.6139 0.800604 36.1489C0.831674 35.6839 1.09187 35.1904 1.53679 34.6975C2.42664 33.7118 4.01641 32.7921 5.3755 32.1466C6.73458 31.5011 7.854 31.1183 7.854 31.1183C7.95405 31.0841 8.03645 31.0116 8.08311 30.9168C8.12978 30.8219 8.1369 30.7124 8.1029 30.6123C8.06873 30.5122 7.99626 30.4298 7.9014 30.3832C7.80653 30.3365 7.69702 30.3294 7.59691 30.3634C7.59691 30.3634 6.43546 30.7596 5.03311 31.4256C3.63076 32.0916 1.97951 33.0156 0.944336 34.1623C0.426748 34.7357 0.0525616 35.3805 0.00481853 36.0951C-0.0429258 36.8097 0.263582 37.5502 0.94901 38.2231C2.31987 39.5688 5.18135 40.8064 10.4821 41.9648C15.4588 43.0524 21.8793 43.0228 27.7241 42.4684C33.5689 41.9141 38.8098 40.8428 41.485 39.7691L41.5013 39.7631L41.5165 39.7549C41.5165 39.7549 42.1514 39.4342 42.8697 38.8913C43.588 38.3484 44.4152 37.5832 44.8048 36.6021C45.1945 35.6211 45.049 34.4035 43.9261 33.2986C42.8031 32.1937 40.7619 31.1287 37.2723 30.1145Z" fill="#1C335D"/>
<path d="M35.5347 32.5766C35.4984 32.5913 35.4654 32.613 35.4375 32.6405C35.4097 32.6679 35.3875 32.7006 35.3723 32.7367C35.3572 32.7727 35.3493 32.8113 35.3491 32.8504C35.3489 32.8894 35.3563 32.9281 35.3711 32.9642C35.3859 33.0004 35.4076 33.0332 35.4351 33.061C35.4625 33.0887 35.4952 33.1107 35.5312 33.1258C36.9364 33.7175 37.6477 34.3295 37.9466 34.86C38.2456 35.3904 38.182 35.8574 37.9559 36.3183C37.5109 37.2258 36.3847 37.9367 36.3492 37.959C34.4652 38.708 30.5507 39.6039 26.2307 40.0565C21.8991 40.5104 17.1487 40.5212 13.5986 39.5576C10.5371 38.7265 8.76045 37.878 7.84349 37.1211C7.385 36.7427 7.14455 36.3936 7.03835 36.0858C6.93215 35.778 6.94978 35.5044 7.05002 35.2292C7.25054 34.6789 7.82769 34.1478 8.36815 33.7767C8.90861 33.4057 9.38946 33.1925 9.38946 33.1925C9.42517 33.1766 9.4574 33.1539 9.48431 33.1256C9.51121 33.0972 9.53227 33.0639 9.54628 33.0274C9.56028 32.9909 9.56695 32.9521 9.5659 32.913C9.56486 32.874 9.55613 32.8355 9.5402 32.7998C9.50819 32.728 9.449 32.6718 9.37563 32.6435C9.30225 32.6153 9.22066 32.6173 9.14874 32.6491C9.14874 32.6491 8.62043 32.8828 8.03161 33.2871C7.44278 33.6914 6.77036 34.2636 6.49262 35.0259C6.35374 35.4071 6.32503 35.8415 6.47628 36.2798C6.62752 36.7181 6.948 37.1516 7.46605 37.5792C8.50215 38.4344 10.34 39.289 13.4432 40.1313C17.1227 41.1301 21.9178 41.1051 26.2926 40.6467C30.6674 40.1882 34.6031 39.2993 36.5923 38.5047L36.6145 38.4954L36.6343 38.4837C36.6343 38.4837 37.9195 37.7409 38.4888 36.5801C38.7735 35.9997 38.8616 35.2728 38.4643 34.5679C38.067 33.8629 37.2343 33.198 35.7614 32.5778C35.689 32.5475 35.6075 32.547 35.5347 32.5766Z" fill="#1C335D"/>
<path d="M22.4295 4.74306e-05C22.198 0.0511422 22.0028 0.23853 21.9283 0.45834C21.6974 0.723644 21.5344 1.02834 21.2996 1.28958C21.2394 1.47502 21.0796 1.55406 21.0183 1.73051C20.8664 1.92357 20.7173 2.13664 20.5806 2.32936C20.367 2.49736 20.2779 2.78744 20.0799 2.97376C20.0376 3.15209 19.8611 3.26424 19.7964 3.4429C19.4285 3.92637 19.0934 4.43321 18.7244 4.91504C18.5439 5.22004 18.2544 5.4709 18.1262 5.7965C17.9589 5.88513 17.9966 6.12932 17.8301 6.21977C17.6164 6.57617 17.3554 6.90109 17.1448 7.26144C16.9792 7.456 16.8682 7.67864 16.7203 7.88236C16.5535 8.02278 16.4637 8.22607 16.3857 8.4117C16.198 8.58113 16.125 8.87254 15.9086 9.02926C15.5625 9.66193 15.1206 10.2495 14.7464 10.8711C14.2974 11.4738 13.9446 12.1377 13.483 12.7321C13.4138 12.9066 13.3171 13.0514 13.2013 13.1981C13.1342 13.3863 12.9886 13.5371 12.9059 13.7205C12.6848 13.9426 12.603 14.2495 12.4188 14.4968C12.408 14.6285 12.254 14.6582 12.2402 14.8022C12.0454 15.0456 11.8771 15.3061 11.7728 15.6008C11.2285 16.5111 10.7122 17.4421 10.2288 18.3842C9.9668 18.7839 9.78977 19.2285 9.62044 19.6698C9.52177 19.8944 9.4914 20.1424 9.39362 20.371C9.35772 20.7242 9.17367 21.0269 9.1039 21.3699C8.97635 21.6749 8.84883 21.9983 8.88091 22.334C8.6822 22.7611 8.81577 23.2711 8.66721 23.713C8.62383 24.636 8.61295 25.5723 8.78002 26.4814C8.82023 27.1211 8.95489 27.7514 9.13975 28.3575C9.18468 28.6691 9.31233 28.9617 9.3707 29.2672C9.59445 29.5463 9.54104 29.9562 9.77888 30.2344C10.1026 30.9006 10.3963 31.604 10.8355 32.1976C10.9794 32.4554 11.2095 32.7129 11.3303 33.0002C12.1984 33.9657 13.0657 34.9537 14.0902 35.7582C14.3792 35.9053 14.5921 36.1721 14.8964 36.2912C15.4421 36.7498 16.1509 36.9482 16.7151 37.3699C16.9503 37.4058 17.1445 37.5576 17.3865 37.5755C17.6603 37.7131 17.8933 37.9319 18.2187 37.9371C18.7968 37.9921 19.3121 38.3155 19.9009 38.329C20.5304 38.3784 21.1419 38.5673 21.7766 38.5453C22.2085 38.5248 22.6214 38.69 23.049 38.6586C23.4264 38.4839 23.8678 38.5521 24.2588 38.415C24.7943 38.3408 25.3498 38.3332 25.8581 38.1307C26.1162 38.107 26.3345 37.9449 26.598 37.934C27.0847 37.821 27.512 37.5658 27.9797 37.4016C28.4834 37.1615 28.9905 36.9034 29.4647 36.6236C29.6907 36.6051 29.7805 36.3781 29.9839 36.2934C30.6644 35.8886 31.2413 35.3317 31.8498 34.8281C31.9846 34.6539 32.2323 34.5648 32.3337 34.3802C32.551 34.0518 32.8871 33.7951 33.1187 33.4664C33.3039 33.2103 33.6151 33.0872 33.7157 32.766C33.8228 32.4845 34.0466 32.2981 34.1537 32.0206C34.4936 31.491 34.8159 30.936 35.0321 30.3464C35.2785 29.9083 35.4033 29.4034 35.5956 28.9373C35.6096 28.6636 35.8113 28.4465 35.7887 28.1621C35.947 27.7115 35.9561 27.2284 36.0789 26.7708C36.2279 26.3396 36.1318 25.8538 36.168 25.4034C36.1421 24.526 36.232 23.6356 36.0889 22.7666C35.935 22.3208 36.0517 21.8213 35.8004 21.4003C35.7687 21.087 35.5753 20.8292 35.5365 20.5145C35.3997 20.2259 35.389 19.9052 35.2469 19.6176C35.2269 19.2546 34.8636 19.0473 34.8411 18.6879C34.7375 18.3687 34.4877 18.1352 34.3551 17.8323C34.2225 17.6955 34.2572 17.4905 34.1145 17.3625C33.7524 16.6797 33.3467 16.0136 32.9677 15.337C32.9148 15.1375 32.7086 15.0591 32.6594 14.8509C32.4938 14.6015 32.3976 14.3009 32.1889 14.0923C31.9475 13.6332 31.6651 13.2063 31.3666 12.7851C31.0204 12.2342 30.779 11.6219 30.327 11.1409C30.0024 10.6164 29.6571 10.1138 29.322 9.59877C29.1624 9.28139 28.9252 9.01782 28.7381 8.71589C28.4623 8.35295 28.2452 7.94696 27.9456 7.59873C27.8112 7.47087 27.7757 7.26755 27.6576 7.1447C27.5359 7.05262 27.4881 6.85586 27.3666 6.74394C27.1957 6.37564 26.9418 6.06578 26.6987 5.74526C26.5573 5.32202 26.1632 5.05568 25.9425 4.67362C25.7992 4.43415 25.6326 4.19583 25.4552 3.99238C25.0534 3.25406 24.4705 2.62324 24.0372 1.91229C23.899 1.7632 23.8907 1.52806 23.6879 1.42055C23.2486 1.00048 23.0604 0.339612 22.5288 0.018014C22.4971 0.00646677 22.4634 -0.000790189 22.4295 4.74306e-05ZM22.3502 2.17971C22.8608 2.16086 23.367 2.35663 23.6891 2.76125C23.9105 3.0233 24.1138 3.31473 24.2971 3.59855C24.3931 3.76629 24.5451 3.89247 24.6211 4.07688C24.871 4.50075 25.2527 4.84995 25.4606 5.29298C25.5574 5.43918 25.7201 5.56043 25.7923 5.74092C26.1232 6.30681 26.5734 6.7961 26.8967 7.36654C27.2374 7.78234 27.4677 8.2717 27.8043 8.691C28.3865 9.55532 29.0031 10.4142 29.5316 11.3047C29.7008 11.4107 29.7293 11.6735 29.8864 11.8138C30.2478 12.3539 30.5657 12.936 30.9379 13.4686C31.1621 13.8129 31.3772 14.1755 31.593 14.5196C31.6763 14.7424 31.885 14.9191 31.9803 15.1484C32.1087 15.4194 32.3052 15.6409 32.4287 15.9086C32.5572 16.0355 32.5168 16.2531 32.6844 16.3413C33.1668 17.214 33.7014 18.0688 34.0787 18.994C34.1662 19.2792 34.4216 19.5097 34.4579 19.8218C34.6489 20.0713 34.6201 20.3984 34.7315 20.6801C34.8673 20.865 34.8211 21.1293 34.965 21.3216C35.3649 22.5416 35.4584 23.8415 35.3716 25.1174C35.3261 25.5262 34.8712 25.7449 34.4943 25.6659C33.7765 25.6344 33.1979 25.1364 32.5508 24.8785C29.388 23.3683 26.2535 21.8024 23.1051 20.2625C22.7736 20.1456 22.4297 19.871 22.0647 19.9629C21.8991 20.1268 21.6539 20.1588 21.4736 20.3023C21.2656 20.3245 21.1324 20.5172 20.919 20.5444C20.5088 20.8398 19.9967 20.9829 19.5545 21.236C16.976 22.4955 14.4273 23.7769 11.8646 25.0705C11.5028 25.3128 11.1028 25.5043 10.7044 25.6802C10.2127 25.7732 9.50528 25.5611 9.46819 24.9716C9.43301 24.151 9.5038 23.3193 9.60505 22.5095C9.67727 22.2884 9.77555 22.0769 9.77764 21.8371C9.96612 21.4284 9.94143 20.9715 10.1238 20.5614C10.2167 20.0954 10.4809 19.6865 10.6249 19.2381C10.7379 18.961 10.9303 18.7238 11.0749 18.4723C11.1477 18.2651 11.2797 18.0772 11.3299 17.8618C11.685 17.3387 11.9036 16.7313 12.2822 16.2193C12.5406 15.7263 12.9028 15.2974 13.1337 14.787C13.4538 14.2856 13.7419 13.7615 14.0808 13.2734C14.3161 12.8739 14.5857 12.4686 14.8307 12.0645C15.0411 11.8145 15.1289 11.5024 15.3558 11.2695C15.5767 10.9869 15.7446 10.6395 15.9564 10.3651C16.1072 10.2629 16.114 10.0271 16.2574 9.89356C16.4578 9.68066 16.5212 9.39082 16.7487 9.19502C17.055 8.84514 17.1938 8.38798 17.508 8.03968C17.6975 7.81163 17.7804 7.52993 17.9967 7.32699C18.2989 6.90307 18.5556 6.45895 18.8875 6.05655C19.0363 5.75432 19.296 5.54927 19.433 5.23771C19.735 4.90957 19.9261 4.49812 20.23 4.17127C20.2836 3.98107 20.4598 3.86101 20.5172 3.67634C20.7004 3.57629 20.7118 3.3235 20.8697 3.18673C21.1263 2.86446 21.3876 2.47025 21.7879 2.32865C21.9758 2.29514 22.1164 2.12844 22.3284 2.17977L22.3502 2.17971ZM22.3719 24.733C23.0308 24.6934 23.5886 25.0996 24.1512 25.3792C24.6526 25.5923 25.098 25.9105 25.6041 26.1166C26.0803 26.3348 26.5352 26.609 27.0044 26.8311C27.1856 26.8353 27.2273 27.0484 27.4088 27.0474C27.646 27.1218 27.8506 27.2901 28.0583 27.3954C28.5598 27.5548 28.9652 27.9079 29.4644 28.0679C29.5925 28.1959 29.7776 28.214 29.8978 28.3418C30.1208 28.3825 30.2633 28.5674 30.4861 28.6078C30.7873 28.7578 31.0758 28.9254 31.3766 29.0725C31.6665 29.3303 32.077 29.337 32.3766 29.5819C32.6796 29.7483 33.0045 29.8909 33.282 30.0866C33.6167 30.1641 33.777 30.5929 33.7463 30.9109C33.7276 31.1885 33.6494 31.4593 33.4986 31.6861C33.3805 31.9386 33.1856 32.1733 33.0032 32.3904C32.851 32.6086 32.7158 32.8503 32.5192 33.0489C31.7548 33.9426 30.8849 34.7543 29.9329 35.4393C29.5333 35.5902 29.2664 35.9656 28.8707 36.1307C28.5579 36.265 28.2518 36.4389 27.9568 36.5982C27.5688 36.7241 27.2242 36.9527 26.8291 37.0552C26.5555 37.1804 26.2587 37.2278 25.98 37.3414C25.6216 37.4047 25.2927 37.5903 24.9169 37.5568C24.5142 37.6241 24.128 37.7558 23.7128 37.7229C22.5913 37.7136 21.4445 37.8161 20.3418 37.628C19.9357 37.5052 19.4839 37.6082 19.11 37.3702C18.5817 37.1778 18.0088 37.1336 17.515 36.8437C17.1109 36.6513 16.6825 36.5278 16.3056 36.2795C15.5584 35.9204 14.8869 35.4273 14.2445 34.9044C13.3079 34.2007 12.5222 33.3121 11.8554 32.352C11.5535 31.9949 11.2859 31.5949 11.105 31.164C10.9777 30.7391 11.1936 30.2621 11.6073 30.0958C11.9047 29.8312 12.3209 29.7282 12.6511 29.4991C13.4541 29.0858 14.2686 28.6924 15.0724 28.2848C15.4651 28.0219 15.9355 27.8901 16.3349 27.6301C17.4558 27.0303 18.5992 26.4735 19.7238 25.8829C19.9265 25.8426 20.0539 25.654 20.265 25.6045C20.6002 25.4723 20.9176 25.2755 21.23 25.121C21.4177 25.0827 21.5435 24.9058 21.7487 24.8948C21.9445 24.7917 22.1478 24.7161 22.3719 24.733Z" fill="#1C335D"/>
<path d="M22.2796 14.3381C19.8591 14.4076 17.4657 15.3048 15.6184 16.8744C14.6833 17.7229 13.8069 18.6584 13.2165 19.7855C12.4949 21.0217 12.0732 22.4088 11.8942 23.8249C11.8515 24.2154 11.755 24.6837 11.8571 25.0666C12.4608 24.8426 12.9775 24.4532 13.6356 24.1676C16.3702 22.8135 19.0828 21.541 21.8499 20.1175C22.0936 20.0057 22.2976 19.8983 22.5562 20.0751C23.5274 20.5018 24.5274 20.9931 25.4954 21.4384C26.2379 21.8139 27.0093 22.1581 27.7438 22.5353C27.8801 22.6615 28.0777 22.6609 28.2061 22.7898C28.4478 22.8394 28.6047 23.0379 28.8478 23.092C30.1882 23.7123 31.5025 24.4025 32.8502 24.9974C32.9256 25.1354 33.1724 25.1776 33.165 24.9652C33.2174 24.0632 33.036 23.1592 32.8328 22.2844C32.0243 19.193 29.7352 16.5292 26.8031 15.2539C25.3886 14.6123 23.8273 14.3366 22.2796 14.3381Z" fill="#FFA929"/>
<path d="M21.4151 28.191C21.4017 28.1913 21.389 28.1922 21.3753 28.1934C20.9617 28.2563 20.5326 28.3334 20.1238 28.2074C19.7937 28.2569 19.449 28.5113 19.4893 28.8828C19.5002 29.4519 19.4409 30.0404 19.5676 30.5971C19.8293 30.9974 20.383 30.8132 20.777 30.8472C21.1418 30.7882 21.6043 30.9359 21.9082 30.6719C22.122 30.2877 21.9789 29.8107 22.0227 29.3923C21.9707 29.0845 22.134 28.6878 21.9281 28.4411C21.7927 28.2981 21.6162 28.1863 21.4151 28.191ZM23.3128 28.197C22.8566 28.2899 22.8227 28.8658 22.8313 29.2405C22.8622 29.6937 22.7747 30.1784 22.9295 30.6112C23.1623 30.9696 23.6635 30.7777 24.0116 30.8321C24.3818 30.8184 24.7646 30.8609 25.1264 30.8111C25.4026 30.5668 25.4546 30.2064 25.422 29.8587C25.3691 29.4139 25.5172 28.9236 25.3169 28.5079C25.0937 28.2024 24.6401 28.343 24.3189 28.2718C23.9819 28.2572 23.6484 28.2089 23.3128 28.197ZM20.7864 31.5928C20.4057 31.6893 19.9917 31.6878 19.626 31.8417C19.3958 32.0996 19.5333 32.5058 19.4846 32.8198C19.5178 33.2206 19.4167 33.658 19.5722 34.0374C19.8785 34.3649 20.3998 34.2477 20.8016 34.2945C21.2161 34.2903 21.734 34.3656 22.0227 33.9977C21.9913 33.3088 22.0841 32.6045 21.9736 31.9235C21.7554 31.6154 21.301 31.8069 21.0049 31.6279C20.9354 31.6019 20.8608 31.5879 20.7864 31.5928ZM24.6718 31.6349C24.3377 31.7416 23.9978 31.5896 23.6563 31.6641C23.3746 31.7122 22.9254 31.7043 22.8886 32.0813C22.8055 32.695 22.8112 33.3267 22.8746 33.9416C23.0422 34.3598 23.5961 34.2738 23.9567 34.3027C24.3809 34.2659 24.9085 34.4008 25.255 34.09C25.5466 33.7017 25.3617 33.1716 25.4127 32.7263C25.38 32.4109 25.5244 32.0122 25.1919 31.8207C25.0498 31.6971 24.8608 31.6259 24.6718 31.6349Z" fill="#1C335D"/>
</g>
<defs>
<clipPath id="clip0_2_3">
<rect width="45" height="42.8454" fill="white"/>
</clipPath>
</defs>
</svg>
