<svg width="40" height="40" viewBox="0 0 40 40" fill="none" xmlns="http://www.w3.org/2000/svg">
<g clip-path="url(#clip0_376_2)">
<path d="M28.75 32.5C28.4185 32.5 28.1005 32.6317 27.8661 32.8661C27.6317 33.1005 27.5 33.4185 27.5 33.75V37.5H2.5V7.5H7.5V8.75C7.5 9.08152 7.6317 9.39946 7.86612 9.63388C8.10054 9.8683 8.41848 10 8.75 10H21.25C21.5815 10 21.8995 9.8683 22.1339 9.63388C22.3683 9.39946 22.5 9.08152 22.5 8.75V7.5H27.5V8.75C27.5 9.08152 27.6317 9.39946 27.8661 9.63388C28.1005 9.8683 28.4185 10 28.75 10C29.0815 10 29.3995 9.8683 29.6339 9.63388C29.8683 9.39946 30 9.08152 30 8.75V6.25C30 5.91848 29.8683 5.60054 29.6339 5.36612C29.3995 5.1317 29.0815 5 28.75 5H22.5V3.75C22.5 2.75544 22.1049 1.80161 21.4017 1.09835C20.6984 0.39509 19.7446 0 18.75 0H11.25C10.2554 0 9.30161 0.39509 8.59835 1.09835C7.89509 1.80161 7.5 2.75544 7.5 3.75V5H1.25C0.918479 5 0.600536 5.1317 0.366116 5.36612C0.131695 5.60054 0 5.91848 0 6.25V38.75C0 39.0815 0.131695 39.3995 0.366116 39.6339C0.600536 39.8683 0.918479 40 1.25 40H28.75C29.0815 40 29.3995 39.8683 29.6339 39.6339C29.8683 39.3995 30 39.0815 30 38.75V33.75C30 33.4185 29.8683 33.1005 29.6339 32.8661C29.3995 32.6317 29.0815 32.5 28.75 32.5ZM10 3.75C10 3.41848 10.1317 3.10054 10.3661 2.86612C10.6005 2.6317 10.9185 2.5 11.25 2.5H18.75C19.0815 2.5 19.3995 2.6317 19.6339 2.86612C19.8683 3.10054 20 3.41848 20 3.75V7.5H10V3.75ZM39.635 15.365L34.635 10.365C34.5189 10.2486 34.381 10.1562 34.2291 10.0932C34.0772 10.0302 33.9144 9.99776 33.75 9.99776C33.5856 9.99776 33.4228 10.0302 33.2709 10.0932C33.119 10.1562 32.9811 10.2486 32.865 10.365L17.865 25.365C17.749 25.4813 17.6571 25.6193 17.5944 25.7712C17.5318 25.923 17.4997 26.0857 17.5 26.25V31.25C17.5 31.5815 17.6317 31.8995 17.8661 32.1339C18.1005 32.3683 18.4185 32.5 18.75 32.5H23.75C23.9143 32.5003 24.077 32.4682 24.2288 32.4056C24.3807 32.3429 24.5187 32.251 24.635 32.135L39.635 17.135C39.7514 17.0189 39.8438 16.881 39.9068 16.7291C39.9698 16.5772 40.0022 16.4144 40.0022 16.25C40.0022 16.0856 39.9698 15.9228 39.9068 15.7709C39.8438 15.619 39.7514 15.4811 39.635 15.365ZM20 30V26.7675L33.75 13.0175L36.9825 16.25L23.2325 30H20ZM15 31.25C15 31.5815 14.8683 31.8995 14.6339 32.1339C14.3995 32.3683 14.0815 32.5 13.75 32.5H8.75C8.41848 32.5 8.10054 32.3683 7.86612 32.1339C7.6317 31.8995 7.5 31.5815 7.5 31.25C7.5 30.9185 7.6317 30.6005 7.86612 30.3661C8.10054 30.1317 8.41848 30 8.75 30H13.75C14.0815 30 14.3995 30.1317 14.6339 30.3661C14.8683 30.6005 15 30.9185 15 31.25ZM15 23.75C15 24.0815 14.8683 24.3995 14.6339 24.6339C14.3995 24.8683 14.0815 25 13.75 25H8.75C8.41848 25 8.10054 24.8683 7.86612 24.6339C7.6317 24.3995 7.5 24.0815 7.5 23.75C7.5 23.4185 7.6317 23.1005 7.86612 22.8661C8.10054 22.6317 8.41848 22.5 8.75 22.5H13.75C14.0815 22.5 14.3995 22.6317 14.6339 22.8661C14.8683 23.1005 15 23.4185 15 23.75ZM21.25 17.5H8.75C8.41848 17.5 8.10054 17.3683 7.86612 17.1339C7.6317 16.8995 7.5 16.5815 7.5 16.25C7.5 15.9185 7.6317 15.6005 7.86612 15.3661C8.10054 15.1317 8.41848 15 8.75 15H21.25C21.5815 15 21.8995 15.1317 22.1339 15.3661C22.3683 15.6005 22.5 15.9185 22.5 16.25C22.5 16.5815 22.3683 16.8995 22.1339 17.1339C21.8995 17.3683 21.5815 17.5 21.25 17.5Z" fill="#D9D9D9" fill-opacity="0.866667"/>
</g>
<defs>
<clipPath id="clip0_376_2">
<rect width="40" height="40" fill="white"/>
</clipPath>
</defs>
</svg>
