<svg width="45" height="45" viewBox="0 0 45 45" fill="none" xmlns="http://www.w3.org/2000/svg">
<g clip-path="url(#clip0_110_204)">
<path d="M7.46604 27.5925C5.40247 27.5925 3.71973 29.2753 3.71973 31.3388C3.71973 33.4024 5.40247 35.0851 7.46604 35.0851C9.52961 35.0851 11.2123 33.4024 11.2123 31.3388C11.2123 29.2753 9.52961 27.5925 7.46604 27.5925ZM7.46604 32.5876C6.77523 32.5876 6.21727 32.0296 6.21727 31.3388C6.21727 30.648 6.78408 30.0901 7.46604 30.0901C8.15685 30.0901 8.71481 30.648 8.71481 31.3388C8.71481 32.0296 8.15685 32.5876 7.46604 32.5876Z" fill="#1C335D"/>
<path d="M19.9183 27.5925C17.8547 27.5925 16.172 29.2753 16.172 31.3388C16.172 33.4024 17.8547 35.0851 19.9183 35.0851C21.9819 35.0851 23.6646 33.4024 23.6646 31.3388C23.6646 29.2753 21.9819 27.5925 19.9183 27.5925ZM19.9183 32.5876C19.2275 32.5876 18.6695 32.0296 18.6695 31.3388C18.6695 30.648 19.2275 30.0901 19.9183 30.0901C20.6091 30.0901 21.1671 30.648 21.1671 31.3388C21.1671 32.0296 20.6091 32.5876 19.9183 32.5876Z" fill="#1C335D"/>
<path d="M19.9183 36.2808C17.3234 36.2808 15.0295 37.6181 13.6922 39.6374C12.3549 37.6181 10.0699 36.2808 7.46605 36.2808C3.34777 36.2808 0 39.6285 0 43.7468C0 44.4376 0.557961 44.9956 1.24877 44.9956H13.6833C13.6922 44.9956 13.6922 44.9956 13.6922 44.9956H26.1267C26.8176 44.9956 27.3755 44.4376 27.3755 43.7468C27.3844 39.6285 24.0366 36.2808 19.9183 36.2808ZM2.65696 42.498C3.21492 40.3636 5.1545 38.7783 7.46605 38.7783C9.7776 38.7783 11.7172 40.3636 12.2751 42.498H2.65696ZM15.1092 42.498C15.6672 40.3636 17.6068 38.7783 19.9183 38.7783C22.2299 38.7783 24.1695 40.3636 24.7274 42.498H15.1092Z" fill="#1C335D"/>
<path d="M43.7423 16.2296H41.5902V14.0952C41.5902 12.2353 40.4212 10.5526 38.6764 9.9149C35.798 8.86097 32.592 8.86097 29.7225 9.9149C27.9866 10.5437 26.8175 12.2264 26.8175 14.0863V16.2207H24.6654C23.9746 16.2207 23.4166 16.7787 23.4166 17.4695C23.4166 18.1603 23.9746 18.7183 24.6654 18.7183H25.0728L28.394 32.5433H28.2257C27.5349 32.5433 26.9769 33.1013 26.9769 33.7921C26.9769 34.4829 27.5349 35.0409 28.2257 35.0409H40.1909C40.8817 35.0409 41.4397 34.4829 41.4397 33.7921C41.4397 33.1013 40.8817 32.5433 40.1909 32.5433H40.0226L43.3438 18.7183H43.7512C44.442 18.7183 45 18.1603 45 17.4695C45 16.7787 44.4332 16.2296 43.7423 16.2296ZM29.3151 14.0863C29.3151 13.2627 29.8287 12.5276 30.5904 12.253C32.9108 11.4028 35.4969 11.4028 37.8262 12.253C38.5879 12.5364 39.1015 13.2715 39.1015 14.0863V16.2207H29.3151V14.0863ZM37.4454 32.5522H30.9624L27.6323 18.7271H40.7577L37.4454 32.5522Z" fill="#1C335D"/>
<path d="M34.2039 0.00445557C31.8834 0.00445557 30.0059 1.8909 30.0059 4.20245C30.0059 6.514 31.8834 8.4093 34.2039 8.4093C36.5154 8.4093 38.4018 6.52286 38.4018 4.2113C38.4018 1.89975 36.5154 0.00445557 34.2039 0.00445557ZM34.2039 5.9029C33.2651 5.9029 32.5034 5.14124 32.5034 4.20245C32.5034 3.26366 33.2651 2.502 34.2039 2.502C35.1426 2.502 35.9043 3.26366 35.9043 4.20245C35.9043 5.14124 35.1426 5.9029 34.2039 5.9029Z" fill="#1C335D"/>
</g>
<defs>
<clipPath id="clip0_110_204">
<rect width="45" height="45" fill="white"/>
</clipPath>
</defs>
</svg>
