<svg width="50" height="50" viewBox="0 0 50 50" fill="none" xmlns="http://www.w3.org/2000/svg">
<path fill-rule="evenodd" clip-rule="evenodd" d="M37.6894 5.30994C36.5386 4.66554 35.3134 4.60065 34.0184 4.7625C32.7882 4.91625 31.2917 5.30523 29.4932 5.77271L25.2884 6.86542C23.4907 7.33256 21.9938 7.72154 20.8484 8.18523C19.6442 8.67277 18.603 9.32783 17.9277 10.4624C17.248 11.6041 17.1806 12.8247 17.3499 14.0995C17.5096 15.3015 17.9127 16.7602 18.3928 18.4979L19.5231 22.5894C20.0034 24.3281 20.4063 25.7865 20.8873 26.904C21.398 28.0906 22.0803 29.1008 23.2378 29.749C24.3884 30.3933 25.6136 30.4583 26.9088 30.2965C28.1388 30.1427 29.6355 29.7537 31.4338 29.2863L35.6388 28.1935C37.4365 27.7263 38.9334 27.3373 40.0786 26.8738C41.2828 26.386 42.324 25.731 42.9994 24.5965C43.679 23.4548 43.7465 22.2342 43.5771 20.9594C43.4173 19.7574 43.0144 18.2988 42.5342 16.561L41.4038 12.4695C40.9236 10.7308 40.5207 9.27242 40.0398 8.15488C39.529 6.96827 38.8469 5.95811 37.6894 5.30994ZM30.1771 8.82375C32.104 8.32298 33.4023 7.98881 34.4059 7.86338C35.3675 7.74319 35.828 7.84917 36.1626 8.03654C36.4905 8.22015 36.8034 8.54023 37.1694 9.39029C37.5553 10.2868 37.9036 11.5351 38.4209 13.4073L39.4926 17.2865C40.0101 19.1592 40.3515 20.4086 40.4794 21.371C40.6007 22.285 40.4921 22.6992 40.3142 22.9981C40.1319 23.3042 39.8015 23.6144 38.9059 23.9771C37.9732 24.3548 36.6771 24.6948 34.7496 25.1956L30.7501 26.2352C28.823 26.736 27.5246 27.0702 26.5211 27.1956C25.5594 27.3158 25.0992 27.2098 24.7644 27.0223C24.4367 26.8388 24.1236 26.5188 23.7578 25.6685C23.3719 24.7721 23.0234 23.5238 22.5061 21.6517L21.4344 17.7724C20.9171 15.8997 20.5756 14.6504 20.4477 13.688C20.3263 12.7739 20.435 12.3598 20.6129 12.0609C20.7951 11.7547 21.1255 11.4445 22.0211 11.0818C22.954 10.7042 24.2501 10.3641 26.1773 9.86321L30.1771 8.82375Z" fill="#1C335D"/>
<path fill-rule="evenodd" clip-rule="evenodd" d="M6.66813 9.84311C5.83661 9.61242 4.97548 10.0995 4.74477 10.931C4.51406 11.7625 5.00113 12.6237 5.83267 12.8544L9.38204 13.8391C10.2687 14.0851 10.929 14.7549 11.1546 15.5714L15.2198 30.2863C15.0636 30.3169 14.9075 30.3525 14.7517 30.3931C10.6328 31.4635 8.1159 35.6069 9.24658 39.6996C10.3718 43.7725 14.6503 46.1217 18.7529 45.0554C22.3431 44.1225 24.7163 40.8546 24.5173 37.3206L42.06 32.7617C42.8952 32.5446 43.3965 31.6915 43.1794 30.8563C42.9623 30.021 42.1092 29.52 41.274 29.7371L23.6946 34.3056C22.6356 32.2488 20.6905 30.8181 18.4727 30.3254L14.1667 14.7392C13.6394 12.8304 12.1277 11.3579 10.2175 10.8279L6.66813 9.84311ZM15.5377 33.4175C18.0621 32.7615 20.5953 34.2267 21.2458 36.581C21.8908 38.9158 20.4749 41.3792 17.9668 42.0308C15.4424 42.6869 12.9092 41.2217 12.2588 38.8673C11.6138 36.5327 13.0296 34.0694 15.5377 33.4175Z" fill="#1C335D"/>
</svg>
