<svg width="45" height="41" viewBox="0 0 45 41" fill="none" xmlns="http://www.w3.org/2000/svg">
<path d="M35.5316 4.06568V7.82529H33.7218V10.4987H35.5316V10.7371C35.5316 12.1079 36.1178 13.3439 37.0519 14.2092L34.0632 16.7177V14.9578H24.9952V0.289185H0V40.7108H24.9952V28.9272H34.0631V20.2081L36.0088 18.5751V24.4247C36.0088 26.3052 37.2348 27.9036 38.9291 28.4657V38.0374H37.3455V40.7108H41.6025V28.4656C43.2968 27.9036 44.5228 26.3051 44.5228 24.4246V17.055C44.5228 15.9744 44.1175 14.9873 43.4517 14.2358C44.4023 13.3694 45.0001 12.1217 45.0001 10.7371V10.4987V7.82529V4.06568H35.5316ZM22.3218 14.958H20.0939V28.9272H22.3218V38.0374H2.67337V2.96256H22.3217V14.958H22.3218ZM31.3898 18.9618L27.5699 22.1679L29.2886 24.2157L31.3898 22.4522V26.2538H24.9952H22.7673V17.6314H24.9952H25.7419V20.449H28.4153V17.6314H31.3898V18.9618ZM41.8495 24.4248C41.8495 25.298 41.139 26.0084 40.2659 26.0084C39.3927 26.0084 38.6822 25.298 38.6822 24.4248V17.0551C38.6822 16.1819 39.3927 15.4715 40.2659 15.4715C41.139 15.4715 41.8495 16.1819 41.8495 17.0551V24.4248ZM42.3267 10.7372C42.3267 11.8735 41.4023 12.7981 40.2659 12.7981C39.1294 12.7981 38.205 11.8735 38.205 10.7372V10.4988H42.3266V10.7372H42.3267ZM42.3267 7.82529H38.2051V6.73905H42.3267V7.82529Z" fill="#1C335D"/>
</svg>
