<svg width="45" height="45" viewBox="0 0 45 45" fill="none" xmlns="http://www.w3.org/2000/svg">
<g clip-path="url(#clip0_110_231)">
<path d="M8.59005 10.2656C6.63764 10.2656 5.04919 11.854 5.04919 13.8065C5.04919 15.759 6.63764 17.3474 8.59005 17.3474C10.5425 17.3474 12.1309 15.759 12.1309 13.8065C12.1309 11.854 10.5425 10.2656 8.59005 10.2656ZM8.59005 14.6731C8.11228 14.6731 7.72345 14.2844 7.72345 13.8065C7.72345 13.3285 8.11219 12.9399 8.59005 12.9399C9.06783 12.9399 9.45665 13.3285 9.45665 13.8065C9.45665 14.2844 9.06783 14.6731 8.59005 14.6731Z" fill="#1C335D"/>
<path d="M8.59005 24.7715C6.63764 24.7715 5.04919 26.3599 5.04919 28.3124C5.04919 30.2649 6.63764 31.8532 8.59005 31.8532C10.5425 31.8532 12.1309 30.2648 12.1309 28.3124C12.1309 26.36 10.5425 24.7715 8.59005 24.7715ZM8.59014 29.179C8.11236 29.179 7.72354 28.7902 7.72354 28.3124C7.72354 27.8345 8.11228 27.4458 8.59014 27.4458C9.068 27.4458 9.45674 27.8344 9.45674 28.3124C9.45665 28.7903 9.06791 29.179 8.59014 29.179Z" fill="#1C335D"/>
<path d="M40.7905 24.4002C39.2093 22.6906 37.2871 21.4167 35.1532 20.6335C37.208 19.0625 38.5362 16.5869 38.5362 13.8066C38.5362 9.06998 34.6827 5.21658 29.9461 5.21658H8.59001C3.85348 5.2165 0 9.06998 0 13.8065C0 16.853 1.59434 19.5339 3.99218 21.0594C1.59434 22.5849 0 25.2658 0 28.3124C0 33.049 3.85348 36.9024 8.59001 36.9024H20.9697V39.7834H45V35.5652C45.0001 31.3005 43.5051 27.3354 40.7905 24.4002ZM29.9461 7.89084C33.208 7.89084 35.8618 10.5445 35.8618 13.8065C35.8618 17.0685 33.208 19.7222 29.9461 19.7222H14.8129C16.279 18.1806 17.1801 16.0969 17.1801 13.8065C17.1801 11.5162 16.279 9.43235 14.8128 7.89084H29.9461ZM8.59001 34.228C5.32812 34.228 2.67434 31.5742 2.67434 28.3124C2.67434 25.0504 5.32812 22.3967 8.59001 22.3967C11.852 22.3967 14.5058 25.0505 14.5058 28.3124C14.5058 31.5742 11.852 34.228 8.59001 34.228ZM8.59344 19.7222H8.58992C5.32803 19.7222 2.67425 17.0685 2.67425 13.8065C2.67425 10.5445 5.32812 7.89084 8.59001 7.89084C11.852 7.89084 14.5058 10.5446 14.5058 13.8065C14.5058 17.0674 11.8538 19.7203 8.59344 19.7222ZM14.8124 34.228C16.2786 32.6864 17.1798 30.6027 17.1798 28.3124C17.1798 27.3072 17.0056 26.3422 16.6869 25.4449C16.6951 25.4519 16.7031 25.4589 16.7109 25.4659C16.7387 25.491 16.7668 25.5158 16.7944 25.5411C16.8434 25.5861 16.8917 25.6319 16.9399 25.6777C16.9626 25.6992 16.9855 25.7204 17.0081 25.742C17.0744 25.8058 17.1398 25.8706 17.2046 25.936C17.2088 25.9401 17.2129 25.944 17.2169 25.9482C17.2861 26.0181 17.3544 26.0892 17.4219 26.1608C17.4407 26.1807 17.4591 26.2013 17.4778 26.2214C17.5259 26.2732 17.5738 26.3251 17.621 26.3776C17.6452 26.4046 17.669 26.4321 17.6928 26.4594C17.7338 26.5059 17.7749 26.5525 17.8153 26.5997C17.841 26.6299 17.8663 26.6605 17.8917 26.6909C17.9295 26.7359 17.9673 26.781 18.0044 26.8268C18.0307 26.8591 18.0565 26.8918 18.0825 26.9245C18.118 26.969 18.1534 27.0136 18.1884 27.0588C18.2147 27.0927 18.2406 27.1271 18.2665 27.1613C18.3003 27.2059 18.3341 27.2506 18.3673 27.2958C18.3933 27.3311 18.4188 27.3665 18.4444 27.402C18.4768 27.447 18.5091 27.4922 18.541 27.5377C18.5663 27.5739 18.5915 27.6102 18.6164 27.6467C18.6478 27.6925 18.6789 27.7385 18.7098 27.7847C18.7343 27.8215 18.7586 27.8585 18.7828 27.8956C18.8132 27.9422 18.8433 27.9894 18.8732 28.0366C18.8969 28.074 18.9203 28.1114 18.9437 28.1491C18.9732 28.1969 19.0022 28.2449 19.0311 28.293C19.0538 28.331 19.0766 28.369 19.099 28.4072C19.1277 28.4561 19.1558 28.5055 19.1839 28.5548C19.2055 28.5929 19.2273 28.631 19.2485 28.6693C19.2766 28.7199 19.3041 28.771 19.3315 28.822C19.3518 28.8598 19.3724 28.8975 19.3923 28.9356C19.42 28.9884 19.4471 29.0418 19.4741 29.0953C19.4929 29.1323 19.512 29.1691 19.5305 29.2064C19.5589 29.2636 19.5863 29.3213 19.6138 29.3791C19.6301 29.413 19.6466 29.4467 19.6625 29.4808C19.6938 29.5479 19.7242 29.6157 19.7545 29.6834C19.7659 29.7089 19.7777 29.7341 19.7889 29.7597C19.8301 29.8536 19.8704 29.9481 19.9095 30.0434C19.9145 30.0552 19.919 30.0674 19.9239 30.0793C19.9578 30.1624 19.9912 30.246 20.0235 30.3301C20.0362 30.363 20.0482 30.3965 20.0607 30.4296C20.0846 30.4931 20.1085 30.5566 20.1315 30.6207C20.1454 30.6597 20.1587 30.6992 20.1725 30.7384C20.193 30.7971 20.2137 30.8559 20.2333 30.9151C20.2473 30.9571 20.2607 30.9993 20.2743 31.0415C20.2928 31.0987 20.3112 31.1559 20.329 31.2135C20.3424 31.2571 20.3553 31.3011 20.3683 31.345C20.3852 31.4017 20.402 31.4584 20.4182 31.5155C20.4309 31.5605 20.4432 31.6058 20.4556 31.6511C20.471 31.7076 20.4863 31.7641 20.501 31.8209C20.513 31.8671 20.5246 31.9136 20.5362 31.9601C20.5503 32.0166 20.5642 32.0732 20.5775 32.13C20.5886 32.1771 20.5993 32.2242 20.61 32.2715C20.6228 32.3285 20.6353 32.3857 20.6474 32.443C20.6575 32.4905 20.6673 32.538 20.6769 32.5857C20.6885 32.6433 20.6998 32.7013 20.7107 32.7595C20.7196 32.8074 20.7287 32.8554 20.7372 32.9036C20.7477 32.962 20.7575 33.0208 20.7673 33.0795C20.7752 33.1277 20.7833 33.1758 20.7907 33.2241C20.8 33.2837 20.8086 33.3436 20.8171 33.4035C20.824 33.4516 20.831 33.4996 20.8373 33.5478C20.8454 33.609 20.8528 33.6705 20.8602 33.732C20.8659 33.7794 20.8719 33.8266 20.8771 33.8743C20.8841 33.9382 20.8902 34.0024 20.8965 34.0667C20.901 34.1123 20.9057 34.1578 20.9097 34.2037C20.9105 34.2118 20.911 34.22 20.9116 34.228H14.8124ZM42.3257 37.1091H23.6439V36.9024V35.5652C23.6439 34.6323 23.5725 33.7137 23.4322 32.8172C22.9315 29.6151 21.5551 26.6933 19.4343 24.4002C18.7368 23.646 17.973 22.9765 17.1539 22.3966H29.9461C37.0036 22.3966 42.3257 28.0579 42.3257 35.5653V37.1091Z" fill="#1C335D"/>
</g>
<defs>
<clipPath id="clip0_110_231">
<rect width="45" height="45" fill="white"/>
</clipPath>
</defs>
</svg>
