<svg width="45" height="45" viewBox="0 0 45 45" fill="none" xmlns="http://www.w3.org/2000/svg">
<g clip-path="url(#clip0_110_252)">
<path d="M44.6904 21.2823L23.0869 2.56669C22.75 2.27481 22.2499 2.27481 21.913 2.56669L0.309506 21.2823C0.0265865 21.5274 -0.0742239 21.9224 0.0565571 22.273C0.187338 22.6237 0.522201 22.8563 0.896526 22.8563H6.32763V41.7558C6.32763 42.2508 6.72894 42.6522 7.22402 42.6522H37.776C38.2711 42.6522 38.6724 42.2509 38.6725 41.7558V22.8563H44.1036C44.4779 22.8563 44.8127 22.6237 44.9435 22.273C45.0741 21.9224 44.9733 21.5273 44.6904 21.2823ZM37.7759 21.0634C37.2808 21.0634 36.8795 21.4648 36.8795 21.9598V40.8594H8.12033V21.9598C8.12033 21.4648 7.71902 21.0634 7.22394 21.0634H3.30015L22.4999 4.43032L41.6996 21.0634H37.7759Z" fill="#1C335D"/>
<path d="M36.44 18.3545L30.5776 13.2007C30.2058 12.8738 29.6394 12.9103 29.3125 13.2821C28.9857 13.6539 29.0221 14.2204 29.3939 14.5472L35.2563 19.7009C35.4266 19.8506 35.6377 19.9241 35.8478 19.9241C36.0966 19.9241 36.3442 19.8211 36.5214 19.6195C36.8483 19.2479 36.8119 18.6813 36.44 18.3545Z" fill="#1C335D"/>
<path d="M28.5034 11.3773L28.2327 11.1393C27.8608 10.8122 27.2945 10.8488 26.9676 11.2206C26.6407 11.5924 26.6771 12.1588 27.0489 12.4856L27.3196 12.7236C27.49 12.8734 27.701 12.9469 27.9111 12.9469C28.1599 12.9469 28.4075 12.8439 28.5847 12.6423C28.9117 12.2706 28.8752 11.7042 28.5034 11.3773Z" fill="#1C335D"/>
<path d="M33.0841 33.1451L23.7358 23.7969C24.1657 21.8946 23.6022 19.9124 22.2024 18.5126C21.1248 17.435 19.692 16.8415 18.1682 16.8415C16.6443 16.8415 15.2115 17.435 14.134 18.5126C11.9096 20.7371 11.9096 24.3567 14.134 26.5811C15.5341 27.9811 17.5161 28.5447 19.4183 28.1144L20.0408 28.7368C20.2188 28.9147 20.4655 29.0094 20.7163 28.9984L20.7828 29.2862C20.8205 29.4498 20.9035 29.5997 21.0223 29.7184L21.8986 30.5948C22.0667 30.7628 22.2947 30.8573 22.5325 30.8573H22.7929V31.1176C22.7929 31.3554 22.8874 31.5834 23.0554 31.7515L23.7389 32.4351C23.907 32.6032 24.1351 32.6976 24.3728 32.6976H25.5097V33.8345C25.5097 34.0722 25.6042 34.3001 25.7722 34.4684L27.1744 35.8707C27.3425 36.0387 27.5705 36.1332 27.8083 36.1332H28.3258V36.6506C28.3258 36.8883 28.4203 37.1162 28.5883 37.2845L29.8562 38.5524C30.0243 38.7204 30.2523 38.8149 30.4901 38.8149C30.7278 38.8149 30.9558 38.7204 31.124 38.5524L33.0842 36.5921C33.2523 36.424 33.3468 36.196 33.3468 35.9583V33.7789C33.3466 33.5412 33.2521 33.3132 33.0841 33.1451ZM31.5537 35.5869L30.49 36.6506L30.1185 36.2791H30.1186V35.2365C30.1186 34.7415 29.7173 34.3401 29.2222 34.3401H28.1795L27.3025 33.4631V31.8011C27.3025 31.3062 26.9012 30.9048 26.4061 30.9048H24.7442L24.5858 30.7463V29.9607C24.5858 29.4657 24.1845 29.0643 23.6894 29.0643H22.9038L22.4718 28.6323L22.1615 27.2877C22.0882 26.9702 21.8483 26.7175 21.5352 26.6277C21.231 26.5403 20.9045 26.6199 20.6749 26.8353L20.3168 26.4774C20.0773 26.2378 19.7231 26.1537 19.4014 26.2603C17.9868 26.7286 16.4542 26.3655 15.4017 25.3131C13.8762 23.7876 13.8762 21.3056 15.4017 19.7801C16.1406 19.0411 17.1232 18.6341 18.1682 18.6341C19.2131 18.6341 20.1956 19.041 20.9346 19.7801C21.9871 20.8326 22.3502 22.3652 21.8818 23.7798C21.7753 24.1016 21.8593 24.4558 22.0989 24.6954L31.5537 34.1503V35.5869Z" fill="#1C335D"/>
<path d="M18.3381 21.418L17.8451 20.9249C17.4949 20.5749 16.9273 20.5749 16.5772 20.9249C16.2272 21.2751 16.2272 21.8427 16.5772 22.1927L17.0703 22.6858C17.2453 22.8608 17.4748 22.9483 17.7042 22.9483C17.9336 22.9483 18.163 22.8608 18.3381 22.6858C18.6881 22.3356 18.6881 21.768 18.3381 21.418Z" fill="#1C335D"/>
</g>
<defs>
<clipPath id="clip0_110_252">
<rect width="45" height="45" fill="white"/>
</clipPath>
</defs>
</svg>
